<?xml version="1.0" encoding="UTF-8"?>
<svg version="1.1" xmlns="http://www.w3.org/2000/svg" width="128" height="128">
<path d="M0 0 C3.160755 2.13167197 4.32031654 3.24263207 5.6875 6.8125 C6.21500647 11.97034101 6.33671719 16.24233649 3.6875 20.8125 C4.491875 21.59625 5.29625 22.38 6.125 23.1875 C9.93415182 27.08955796 9.8212267 29.00256949 9.86450195 34.37011719 C9.87107315 35.04352142 9.87764435 35.71692566 9.88441467 36.41073608 C9.9041553 38.64361684 9.91581318 40.87643024 9.92578125 43.109375 C9.92985678 43.87233131 9.9339323 44.63528763 9.93813133 45.42136383 C9.95899744 49.46124501 9.97329559 53.5010922 9.98266602 57.54101562 C9.993719 61.70849734 10.02810391 65.87544342 10.06783772 70.04273605 C10.09402166 73.25129163 10.1023595 76.45972009 10.10594749 79.66837311 C10.11081056 81.20413064 10.12241669 82.73988261 10.14098549 84.27553558 C10.16541169 86.42988589 10.16440634 88.58285745 10.1574707 90.73730469 C10.16333694 91.96149109 10.16920319 93.18567749 10.17524719 94.44696045 C9.57537639 98.58617222 8.39752832 100.64070752 5.6875 103.8125 C0.49660639 107.51639852 -4.68045158 107.23872501 -10.8125 107.20068359 C-11.85712402 107.20594055 -12.90174805 107.21119751 -13.97802734 107.21661377 C-17.42300471 107.22979221 -20.86751812 107.221083 -24.3125 107.2109375 C-26.7109384 107.21295885 -29.1093762 107.21587079 -31.5078125 107.21963501 C-36.5313096 107.22405546 -41.55464653 107.2176361 -46.578125 107.20361328 C-53.01428985 107.1865218 -59.45007938 107.19636444 -65.88623047 107.21433067 C-70.83791934 107.22517591 -75.78951937 107.22171871 -80.74121094 107.2139473 C-83.11425827 107.21194735 -85.48731368 107.21439734 -87.86035156 107.22138596 C-91.17795147 107.22901234 -94.49494519 107.21737883 -97.8125 107.20068359 C-98.79138184 107.20675629 -99.77026367 107.21282898 -100.77880859 107.21908569 C-105.99649733 107.17049093 -109.92247122 106.94495124 -114.3125 103.8125 C-118.00312776 99.4846813 -118.81343972 96.41027756 -118.81420898 90.78491211 C-118.81961197 90.10931747 -118.82501495 89.43372284 -118.83058167 88.73765564 C-118.84301245 86.5212623 -118.82661949 84.30618238 -118.80859375 82.08984375 C-118.80874885 80.54097933 -118.81023972 78.99211452 -118.81300354 77.44325256 C-118.81438493 74.2044245 -118.80187231 70.96604069 -118.77905273 67.72729492 C-118.75064468 63.58226404 -118.75341515 59.43796945 -118.76614285 55.29288387 C-118.77310706 52.09719079 -118.76530274 48.90166702 -118.75288582 45.70599556 C-118.74838018 44.17782809 -118.74802675 42.64964239 -118.75195122 41.12147331 C-118.75487147 38.98416925 -118.73832041 36.84787018 -118.71655273 34.71069336 C-118.71114975 33.49635117 -118.70574677 32.28200897 -118.70018005 31.03086853 C-118.27545401 27.50495863 -117.42375404 25.63890315 -115.3125 22.8125 C-109.98363612 18.98664901 -105.79429425 18.69297441 -99.33520508 18.87695312 C-97.89445456 18.91303686 -96.45368268 18.94827526 -95.01289368 18.98278809 C-93.87033332 19.0116938 -93.87033332 19.0116938 -92.70469093 19.04118347 C-87.77705194 19.15035584 -82.84817936 19.18007426 -77.91957569 19.22002411 C-73.60793025 19.25934038 -69.30114048 19.32881352 -64.99145508 19.46728516 C-42.87861551 20.98458462 -42.87861551 20.98458462 -23.84831238 11.7232666 C-21.22827021 8.82230698 -18.86012624 5.85298604 -16.72709656 2.57629395 C-12.4994238 -2.69499247 -5.80088864 -2.07956385 0 0 Z " fill="#515165" transform="translate(118.3125,11.1875)"/>
<path d="M0 0 C3.160755 2.13167197 4.32031654 3.24263207 5.6875 6.8125 C6.19748671 10.25207706 6.49389121 13.4171686 5.6875 16.8125 C4.06049064 18.53787167 2.3976158 20.17177984 0.6875 21.8125 C-0.70185136 23.19658114 -2.08828535 24.58359361 -3.47265625 25.97265625 C-14.03255208 36.53255208 -24.59244792 47.09244792 -35.15234375 57.65234375 C-35.87915848 58.37938507 -36.60597321 59.10642639 -37.35481262 59.85549927 C-38.54095969 61.0412303 -39.72783495 62.22623433 -40.9160614 63.40988159 C-42.73832573 65.22561212 -44.52991258 67.04944065 -46.26953125 68.9453125 C-51.312692 74.36007457 -55.4847746 77.443321 -62.96875 78.015625 C-69.675 78.13125 -69.675 78.13125 -72.3125 76.8125 C-72.42163249 74.45705717 -72.5003041 72.10678036 -72.5625 69.75 C-72.60890625 68.43902344 -72.6553125 67.12804687 -72.703125 65.77734375 C-71.87584123 57.3804135 -66.28274085 52.37629074 -60.51171875 46.75390625 C-59.75711868 46.0059227 -59.00251862 45.25793915 -58.22505188 44.48728943 C-55.82374644 42.10926708 -53.41249648 39.74166363 -51 37.375 C-48.59995472 35.01022464 -46.2021409 32.64324889 -43.80708313 30.27342224 C-42.3210937 28.80416672 -40.83201883 27.33802251 -39.33927917 25.87562561 C-35.32517164 21.91851334 -31.50992807 17.86107456 -27.84350586 13.57893372 C-25.54000018 10.92121032 -23.10336206 8.4335394 -20.625 5.9375 C-19.71363281 5.01195312 -18.80226562 4.08640625 -17.86328125 3.1328125 C-12.38115918 -1.85398767 -6.91029767 -2.47727652 0 0 Z " fill="#BBBBD0" transform="translate(118.3125,11.1875)"/>
<path d="M0 0 C0 29.04 0 58.08 0 88 C-14 88 -14 88 -20 85 C-23.69062776 80.6721813 -24.50093972 77.59777756 -24.50170898 71.97241211 C-24.50711197 71.29681747 -24.51251495 70.62122284 -24.51808167 69.92515564 C-24.53051245 67.7087623 -24.51411949 65.49368238 -24.49609375 63.27734375 C-24.49624885 61.72847933 -24.49773972 60.17961452 -24.50050354 58.63075256 C-24.50188493 55.3919245 -24.48937231 52.15354069 -24.46655273 48.91479492 C-24.43814468 44.76976404 -24.44091515 40.62546945 -24.45364285 36.48038387 C-24.46060706 33.28469079 -24.45280274 30.08916702 -24.44038582 26.89349556 C-24.43588018 25.36532809 -24.43552675 23.83714239 -24.43945122 22.30897331 C-24.44237147 20.17166925 -24.42582041 18.03537018 -24.40405273 15.89819336 C-24.39864975 14.68385117 -24.39324677 13.46950897 -24.38768005 12.21836853 C-23.96295401 8.69245863 -23.11125404 6.82640315 -21 4 C-14.09762131 -0.95555393 -8.93068848 0 0 0 Z " fill="#BBBBD1" transform="translate(24,30)"/>
<path d="M0 0 C20.46 0 40.92 0 62 0 C55.25463555 7.86959186 55.25463555 7.86959186 52.62841797 10.4375 C51.74753006 11.30375 51.74753006 11.30375 50.84884644 12.1875 C50.23614899 12.785625 49.62345154 13.38375 48.9921875 14 C47.66247269 15.3122085 46.33305442 16.62471755 45.00390625 17.9375 C42.9357097 19.97472522 40.86527627 22.00950745 38.78955078 24.0390625 C36.76689104 26.01919526 34.753969 28.00882401 32.7421875 30 C31.81706863 30.8971875 31.81706863 30.8971875 30.8732605 31.8125 C30.29230621 32.39 29.71135193 32.9675 29.11279297 33.5625 C28.60682587 34.05878906 28.10085876 34.55507812 27.57955933 35.06640625 C25.35837944 37.78543015 23.74191626 40.95164654 22 44 C11.11 44.495 11.11 44.495 0 45 C0 30.15 0 15.3 0 0 Z " fill="#606075" transform="translate(24,30)"/>
<path d="M0 0 C3.21224718 1.41968345 5.32884771 3.7183491 6.88656616 6.83378601 C6.97323043 9.45980647 7.00224176 12.05963217 6.98422241 14.68534851 C6.98321533 15.37137146 6.98220825 16.05739441 6.98117065 16.76420593 C6.97593506 19.32908294 6.9619738 21.89393614 6.94906616 24.45878601 C6.92844116 30.19253601 6.90781616 35.92628601 6.88656616 41.83378601 C-9.61343384 42.16378601 -26.11343384 42.49378601 -43.11343384 42.83378601 C-41.34490553 39.29672939 -40.06370527 37.52004121 -37.36978149 34.78373718 C-36.602034 34.00000229 -35.8342865 33.2162674 -35.04327393 32.40878296 C-34.21306732 31.57321365 -33.38286072 30.73764435 -32.52749634 29.87675476 C-31.67416718 29.01439713 -30.82083801 28.15203949 -29.94165039 27.2635498 C-28.13707287 25.4444726 -26.32967685 23.62818774 -24.51968384 21.8144989 C-21.74381654 19.02669187 -18.98714212 16.2207851 -16.23062134 13.41386414 C-14.4765644 11.65034837 -12.72139345 9.88793981 -10.96499634 8.12675476 C-9.72575912 6.85821907 -9.72575912 6.85821907 -8.46148682 5.5640564 C-7.687435 4.79608231 -6.91338318 4.02810822 -6.11587524 3.23686218 C-5.43795929 2.55387558 -4.76004333 1.87088898 -4.06158447 1.16720581 C-2.11343384 -0.16621399 -2.11343384 -0.16621399 0 0 Z M-45.11343384 42.83378601 C-44.45343384 43.16378601 -43.79343384 43.49378601 -43.11343384 43.83378601 C-45.09343384 45.81378601 -47.07343384 47.79378601 -49.11343384 49.83378601 C-49.77343384 49.50378601 -50.43343384 49.17378601 -51.11343384 48.83378601 C-49.13343384 46.85378601 -47.15343384 44.87378601 -45.11343384 42.83378601 Z " fill="#616176" transform="translate(121.11343383789063,32.16621398925781)"/>
<path d="M0 0 C4.29238623 1.65091778 6.8793915 4.73754566 10 8 C8.41757971 11.87534185 5.78538221 14.49739906 2.86352539 17.39526367 C2.34135941 17.9209343 1.81919342 18.44660492 1.28120422 18.98820496 C-0.44165636 20.71984952 -2.17170775 22.44409761 -3.90234375 24.16796875 C-5.10328463 25.37025703 -6.3039285 26.57284206 -7.50428772 27.77571106 C-10.01874257 30.29311249 -12.53677457 32.80686569 -15.05737305 35.31811523 C-18.29018914 38.53952486 -21.51392793 41.76984566 -24.73505306 45.00294018 C-27.21152782 47.48663559 -29.69273852 49.96555555 -32.17541695 52.44304848 C-33.36622573 53.63252198 -34.55554752 54.82348604 -35.74336052 56.01595116 C-37.40216394 57.67982444 -39.06722742 59.33716687 -40.73413086 60.99291992 C-41.22514282 61.48798035 -41.71615479 61.98304077 -42.2220459 62.49310303 C-44.49124736 64.73421504 -45.92330252 65.97443417 -49 67 C-49.10916653 64.81363696 -49.18611228 62.62565426 -49.25 60.4375 C-49.31960937 58.61025391 -49.31960937 58.61025391 -49.390625 56.74609375 C-48.53072172 48.49962132 -42.86651486 43.4627363 -37.19921875 37.94140625 C-36.44461868 37.1934227 -35.69001862 36.44543915 -34.91255188 35.67478943 C-32.51124644 33.29676708 -30.09999648 30.92916363 -27.6875 28.5625 C-25.28745472 26.19772464 -22.8896409 23.83074889 -20.49458313 21.46092224 C-19.0085937 19.99166672 -17.51951883 18.52552251 -16.02677917 17.06312561 C-12.01074072 13.10410984 -8.197357 9.04511622 -4.53596497 4.75498962 C-3.08488744 3.09699217 -1.5763096 1.53842598 0 0 Z " fill="#E0E0E9" transform="translate(95,20)"/>
<path d="M0 0 C7.92 0 15.84 0 24 0 C24 10.56 24 21.12 24 32 C10 32 10 32 4 29 C-0.31761481 24.52512107 -0.42469104 20.51633902 -0.36035156 14.59814453 C-0.32393555 13.45200684 -0.28751953 12.30586914 -0.25 11.125 C-0.1675 7.45375 -0.085 3.7825 0 0 Z " fill="#9696B8" transform="translate(0,86)"/>
<path d="M0 0 C7.92 0 15.84 0 24 0 C24 7.92 24 15.84 24 24 C16.08 24 8.16 24 0 24 C0 16.08 0 8.16 0 0 Z " fill="#BCBCD1" transform="translate(0,62)"/>
<path d="M0 0 C3.160755 2.13167197 4.32031654 3.24263207 5.6875 6.8125 C6.1968272 10.24762904 6.29811177 13.38628949 5.6875 16.8125 C3.4375 19.6875 3.4375 19.6875 0.6875 21.8125 C-0.075625 22.575625 -0.83875 23.33875 -1.625 24.125 C-2.181875 24.681875 -2.73875 25.23875 -3.3125 25.8125 C-11.36707577 22.40479487 -17.56533257 14.93325115 -22.3125 7.8125 C-21.23569498 6.68124978 -20.15074365 5.55775081 -19.0625 4.4375 C-18.45921875 3.81101562 -17.8559375 3.18453125 -17.234375 2.5390625 C-12.05785955 -2.11138431 -6.35513172 -2.27825477 0 0 Z M-71.3125 74.8125 C-70.6525 75.1425 -69.9925 75.4725 -69.3125 75.8125 C-70.3025 75.8125 -71.2925 75.8125 -72.3125 75.8125 C-71.9825 75.4825 -71.6525 75.1525 -71.3125 74.8125 Z " fill="#BBBBD0" transform="translate(118.3125,11.1875)"/>
<path d="M0 0 C7.92 0 15.84 0 24 0 C24 3.96 24 7.92 24 12 C16.08 12 8.16 12 0 12 C0 8.04 0 4.08 0 0 Z " fill="#E1E1EA" transform="translate(0,62)"/>
<path d="M0 0 C2.0520481 -0.00219314 4.10356408 -0.02038217 6.15551758 -0.03930664 C7.44393555 -0.04124023 8.73235352 -0.04317383 10.05981445 -0.04516602 C11.24518799 -0.0492749 12.43056152 -0.05338379 13.65185547 -0.05761719 C16.4934082 0.18530273 16.4934082 0.18530273 18.4934082 2.18530273 C17.93785265 6.74085829 17.93785265 6.74085829 16.4934082 8.18530273 C13.68177441 8.27392266 10.89482565 8.30052629 8.08325195 8.28295898 C7.24121719 8.28154404 6.39918243 8.28012909 5.53163147 8.27867126 C2.83135486 8.27305537 0.13115993 8.26050022 -2.5690918 8.24780273 C-4.39526248 8.24278978 -6.22143445 8.23822652 -8.04760742 8.23413086 C-12.53396722 8.22308078 -17.02026564 8.20580553 -21.5065918 8.18530273 C-20.26275477 4.45379166 -18.66311373 3.43996126 -15.5065918 1.18530273 C-10.49225469 -0.48614297 -5.25044104 -0.00063084 0 0 Z " fill="#444454" transform="translate(84.506591796875,80.814697265625)"/>
<path d="M0 0 C3.33238562 3.12411151 4.35620588 5.54138518 4.5625 10 C4.4101674 13.80267307 4.18213898 14.76726685 1.75 17.875 C0.8425 18.57625 -0.065 19.2775 -1 20 C-1.763125 20.763125 -2.52625 21.52625 -3.3125 22.3125 C-3.869375 22.869375 -4.42625 23.42625 -5 24 C-8.81684226 22.44499019 -11.19195732 19.96404505 -14 17 C-12.40069566 12.95864413 -9.51339591 10.32092848 -6.4375 7.375 C-2.77285984 4.03597098 -2.77285984 4.03597098 0 0 Z " fill="#9696B8" transform="translate(120,13)"/>
</svg>
